<?xml version="1.0" encoding="utf-8"?>
<!-- Generator: Adobe Illustrator 25.0.1, SVG Export Plug-In . SVG Version: 6.00 Build 0)  -->
<svg version="1.1" id="Layer_1" xmlns="http://www.w3.org/2000/svg" xmlns:xlink="http://www.w3.org/1999/xlink" x="0px" y="0px"
	 viewBox="0 0 80 80" style="enable-background:new 0 0 80 80;" xml:space="preserve">
<g>
	<path d="M46.6,26.9c0.5,0.2,1,0.3,1.6,0.3c0.9,0,1.6-0.3,2.1-0.5v-4.5c-1.2,0.4-3,0.5-4.5-0.2c-0.9-0.4-1.8-0.6-2.7-0.6
		c-0.8,0-1.5,0.2-1.9,0.3v4.6c0.5-0.1,1.2-0.2,1.9-0.2C44.2,26.2,45.4,26.4,46.6,26.9z"/>
	<path d="M0,0v80h80V0H0z M58,60.7L47.7,47.9l-3.8,4.7L40,47.9l-3.8,4.7l-3.8-4.7L22,60.7l-1.7-1.4l18.7-23V28v-6.9
		c0-0.4,0.2-0.7,0.5-0.9c0.1-0.1,1.5-0.9,3.6-0.9c1.2,0,2.4,0.3,3.6,0.7c0.5,0.2,1,0.3,1.6,0.3c1.4,0,2.5-0.7,2.5-0.7
		c0.3-0.2,0.8-0.2,1.1-0.1c0.4,0.2,0.6,0.6,0.6,1v6.9c0,0.4-0.2,0.7-0.5,0.9c-0.1,0-1.6,1.1-3.8,1.1c-0.8,0-1.7-0.2-2.4-0.5
		c-0.9-0.4-1.8-0.6-2.7-0.6c-0.8,0-1.5,0.2-1.9,0.3v7.7l18.7,23L58,60.7z"/>
	<polygon points="33.8,46.1 36.2,49.1 40,44.4 43.8,49.1 46.2,46.2 40,38.5 	"/>
</g>
</svg>
