<?xml version="1.0" standalone="no"?>
<!DOCTYPE svg PUBLIC "-//W3C//DTD SVG 20010904//EN"
 "http://www.w3.org/TR/2001/REC-SVG-20010904/DTD/svg10.dtd">
<svg version="1.0" xmlns="http://www.w3.org/2000/svg"
 width="800.000000pt" height="800.000000pt" viewBox="0 0 800.000000 800.000000"
 preserveAspectRatio="xMidYMid meet">
<metadata>
Created by potrace 1.16, written by Peter Selinger 2001-2019
</metadata>
<g transform="translate(0.000000,800.000000) scale(0.100000,-0.100000)"
fill="#000000" stroke="none">
<path d="M4443 7787 c-17 -18 -43 -42 -57 -54 -14 -11 -31 -32 -37 -46 -9 -21
-22 -27 -68 -35 -48 -9 -59 -8 -76 8 -33 29 -61 40 -106 40 -33 0 -48 -6 -71
-30 -34 -36 -33 -35 -60 -10 -16 14 -36 20 -70 20 -26 0 -71 9 -100 20 -89 34
-173 22 -199 -27 -6 -11 -33 -35 -60 -53 -37 -24 -49 -37 -49 -56 0 -27 -13
-44 -47 -63 -18 -9 -35 -7 -87 9 -56 18 -72 20 -122 11 -31 -6 -59 -12 -61
-14 -1 -2 -13 -23 -26 -48 -18 -33 -30 -45 -50 -47 -16 -2 -34 -14 -43 -28 -9
-13 -21 -24 -26 -24 -5 0 -23 -13 -41 -30 -18 -16 -37 -30 -44 -30 -6 0 -33
-20 -60 -44 -26 -25 -58 -53 -70 -63 -23 -18 -59 -125 -83 -248 -6 -33 -21
-94 -32 -137 -18 -69 -19 -84 -8 -165 6 -48 14 -99 17 -113 3 -14 9 -77 13
-140 4 -63 15 -173 24 -245 9 -71 21 -168 27 -215 19 -154 41 -268 71 -364 22
-72 23 -103 3 -149 -23 -56 -45 -177 -45 -252 0 -83 7 -115 26 -115 11 0 14
18 14 74 0 41 4 77 8 80 13 8 31 -8 32 -29 3 -120 7 -165 13 -171 14 -14 36
31 37 74 0 57 28 142 47 142 26 0 10 42 -23 59 l-31 17 23 11 c13 6 24 7 24 2
0 -5 7 -9 15 -9 8 0 35 -10 60 -22 45 -22 54 -39 35 -68 -9 -13 -11 -13 -20 0
-8 12 -10 9 -10 -12 0 -16 5 -28 10 -28 22 0 10 -47 -15 -58 -14 -6 -25 -15
-25 -20 0 -18 14 -21 41 -6 l29 15 0 -36 c0 -32 2 -35 24 -29 21 5 24 1 33
-47 10 -47 9 -52 -9 -57 -15 -3 -18 -10 -13 -26 18 -57 17 -61 -14 -73 -45
-17 -40 -36 9 -31 43 4 40 9 55 -83 8 -42 -2 -52 -65 -67 -31 -8 -46 -8 -51 0
-5 7 -9 7 -13 -1 -5 -8 -11 -7 -20 1 -9 9 -10 24 -2 62 7 37 6 51 -3 54 -8 3
-4 10 9 22 26 22 23 50 -7 65 -11 6 -28 17 -36 24 -18 14 -37 7 -37 -15 0 -8
-6 -14 -13 -14 -14 0 -57 80 -57 108 0 14 -2 15 -10 2 -5 -9 -5 -19 1 -27 6
-7 8 -17 4 -23 -3 -5 -2 -10 3 -10 6 0 13 -12 16 -27 4 -16 13 -41 21 -58 7
-16 23 -56 35 -87 27 -71 83 -118 140 -118 46 0 72 -24 96 -89 10 -28 21 -51
25 -51 9 0 24 -42 41 -110 18 -75 17 -528 -1 -585 -13 -42 -32 -86 -41 -95 -3
-3 -11 -17 -18 -31 -23 -44 -55 -75 -102 -99 -25 -12 -63 -35 -85 -50 -60 -41
-114 -70 -130 -70 -8 0 -15 -4 -15 -10 0 -5 -6 -10 -12 -10 -7 0 -35 -11 -62
-25 -27 -14 -61 -25 -76 -25 -15 0 -63 -18 -108 -40 -44 -22 -87 -40 -96 -40
-9 0 -16 -4 -16 -10 0 -5 -5 -10 -10 -10 -6 0 -32 -20 -58 -45 -26 -25 -55
-48 -64 -51 -10 -3 -18 -10 -18 -15 0 -5 -7 -9 -15 -9 -7 0 -18 -6 -22 -13
-15 -23 -121 -104 -165 -125 -130 -61 -133 -62 -242 -62 -99 0 -169 -13 -218
-40 -10 -6 -27 -10 -37 -10 -11 0 -22 -4 -25 -9 -7 -10 -20 -17 -291 -154
-104 -53 -129 -68 -160 -98 -94 -91 -125 -119 -175 -159 -30 -25 -69 -58 -86
-75 -149 -142 -189 -184 -226 -238 -23 -34 -52 -73 -65 -86 -13 -13 -23 -32
-23 -42 0 -11 -4 -19 -10 -19 -5 0 -10 -12 -10 -26 0 -15 -9 -43 -19 -63 -10
-20 -23 -65 -28 -101 -12 -81 -5 -97 96 -212 36 -41 61 -49 61 -19 0 11 4 23
10 26 5 3 10 17 10 30 0 13 4 27 10 30 5 3 10 12 10 20 0 16 78 153 102 179
10 11 18 23 18 26 0 3 16 12 35 20 19 8 36 19 37 24 0 6 1 18 2 26 1 22 40 24
78 4 83 -43 238 -179 288 -254 13 -19 27 -37 30 -40 4 -3 21 -27 40 -55 45
-67 123 -169 133 -173 4 -2 7 -9 7 -15 0 -12 97 -127 118 -141 43 -26 152
-149 172 -194 13 -29 27 -52 31 -52 4 0 11 -9 14 -20 3 -11 12 -26 18 -32 18
-20 47 -86 47 -109 0 -25 59 -149 71 -149 5 0 9 -5 9 -11 0 -6 13 -28 28 -48
26 -34 39 -58 61 -113 41 -102 51 -112 166 -158 33 -13 70 -30 82 -37 24 -16
106 -47 266 -103 59 -20 110 -40 114 -43 3 -4 17 -7 29 -7 13 0 25 -4 28 -9 3
-5 18 -11 33 -14 16 -3 91 -22 168 -42 77 -20 154 -39 170 -41 17 -3 39 -9 50
-14 11 -5 38 -11 60 -14 22 -3 65 -10 95 -16 389 -78 998 -86 1485 -20 80 11
192 32 315 59 99 22 310 78 317 84 3 4 19 7 34 7 15 0 31 5 34 10 3 6 16 10
29 10 12 0 26 4 31 8 6 4 28 14 50 21 96 30 302 110 354 136 25 13 73 36 106
51 160 73 331 161 365 188 8 6 35 22 60 36 42 23 153 90 175 107 6 5 39 28 75
53 36 24 72 54 81 65 9 11 26 31 38 44 12 13 21 31 21 38 0 15 32 65 57 91 7
7 16 25 19 39 4 14 20 52 35 84 16 33 29 65 29 72 1 17 26 48 33 41 3 -4 5 6
4 21 -1 17 4 30 13 33 12 3 12 2 3 -8 -6 -7 -9 -19 -6 -26 3 -8 0 -21 -6 -28
-7 -8 -13 -32 -15 -53 -1 -21 -8 -37 -14 -36 -6 2 -13 -21 -17 -55 -8 -75 -14
-91 -24 -73 -6 9 -10 5 -13 -13 -6 -31 5 -42 22 -21 7 8 18 15 24 15 6 0 33
20 59 45 27 25 52 45 56 45 4 0 22 14 39 31 l32 32 -1 100 c-1 56 -7 124 -14
151 -20 76 -33 154 -41 226 -3 36 -8 68 -10 72 -2 3 -6 78 -9 165 -3 106 -9
173 -20 202 -8 24 -15 54 -15 68 0 13 -9 41 -20 63 -11 22 -20 48 -20 59 0 26
-33 102 -62 143 -31 44 -128 138 -142 138 -7 0 -25 13 -40 29 -15 16 -71 50
-124 76 -54 26 -108 55 -122 64 -14 9 -50 28 -80 41 -30 13 -77 40 -105 59
-89 62 -159 87 -305 111 -25 3 -70 18 -100 33 -31 14 -92 30 -139 37 -84 12
-108 20 -145 53 -11 9 -24 17 -28 17 -5 0 -14 5 -21 10 -18 15 -109 64 -217
115 -52 25 -103 50 -112 55 -10 6 -25 10 -33 10 -8 0 -23 4 -33 9 -35 19 -112
51 -121 51 -35 0 -64 29 -92 89 -52 111 -50 206 6 291 13 19 31 60 41 90 23
72 35 100 46 100 26 0 118 119 118 153 0 14 9 47 21 74 12 26 21 67 20 90 0
47 14 81 51 118 31 31 45 75 27 86 -19 12 -24 112 -6 140 10 16 15 50 15 101
0 51 6 87 17 108 37 72 56 175 40 214 -6 13 -5 17 2 13 17 -11 23 18 24 106 1
96 -27 235 -56 279 -17 25 -7 194 16 293 5 22 14 144 19 270 13 301 14 309 39
344 12 16 26 53 31 81 5 28 19 72 30 98 17 39 20 67 21 191 0 232 -55 429
-129 460 -78 33 -106 100 -78 182 19 53 20 86 3 117 l-13 23 -12 -25 c-12 -26
-42 -36 -42 -15 0 7 9 27 21 45 20 34 20 34 1 34 -11 0 -22 4 -24 10 -1 5 -18
10 -36 12 -18 1 -40 10 -49 20 -9 10 -26 18 -38 18 -12 0 -25 3 -29 7 -12 13
-118 32 -177 32 -67 1 -99 25 -120 86 -7 22 -26 59 -42 83 -21 32 -34 42 -55
42 -48 0 -55 -12 -48 -73 6 -47 4 -62 -18 -104 -31 -62 -51 -80 -70 -64 -10 9
-14 27 -11 62 3 27 1 49 -4 49 -15 0 -29 53 -20 75 19 48 13 55 -48 54 -51 0
-62 -4 -90 -32z m-203 -1099 c0 -5 5 -6 12 -2 6 4 8 3 4 -4 -3 -5 0 -12 6 -15
7 -2 9 -8 5 -13 -5 -5 -15 0 -23 11 -13 17 -16 18 -25 5 -9 -13 -10 -12 -5 3
3 9 1 17 -4 17 -6 0 -10 -9 -10 -21 0 -16 4 -19 22 -14 15 6 20 4 16 -7 -4
-10 5 -14 36 -15 40 -1 111 -9 111 -13 0 -1 33 -2 73 -3 63 -1 72 -4 72 -20 0
-14 5 -17 20 -12 11 3 20 2 20 -3 0 -6 16 -9 35 -8 20 2 38 0 41 -5 2 -4 12
-5 21 -2 9 4 14 2 10 -3 -3 -6 -1 -16 4 -24 8 -13 10 -13 20 0 9 12 10 12 5
-4 -4 -11 -1 -23 6 -27 7 -4 9 -11 6 -15 -4 -3 -14 1 -23 10 -22 22 -28 20
-14 -5 6 -12 9 -30 6 -40 -3 -10 -1 -19 4 -19 5 0 9 9 9 20 0 11 5 20 11 20 6
0 8 -7 5 -16 -3 -9 -6 -22 -6 -30 0 -8 -5 -13 -12 -12 -7 2 -12 -5 -11 -14 2
-42 3 -49 11 -44 9 5 35 -23 40 -42 1 -7 -2 -12 -8 -12 -18 0 -10 -31 13 -51
12 -10 16 -18 9 -19 -10 0 -10 -3 0 -14 11 -12 14 -11 19 3 4 11 8 6 14 -17 4
-22 12 -32 20 -28 8 3 16 -5 19 -19 4 -16 11 -22 21 -19 9 4 15 0 15 -10 0 -9
5 -17 10 -17 6 -1 15 -2 20 -3 6 0 15 -8 20 -16 5 -8 10 -11 10 -7 0 5 12 -1
26 -12 15 -12 31 -21 36 -21 15 0 71 -50 59 -51 -6 -1 -19 -2 -28 -3 -10 -1
-24 -5 -30 -9 -7 -4 -68 -8 -135 -7 -160 1 -207 -1 -206 -9 3 -25 -4 -33 -23
-28 -29 8 -49 -2 -49 -24 0 -23 10 -24 36 -4 21 16 35 19 33 8 -7 -45 -4 -46
102 -39 83 5 111 3 155 -11 30 -10 54 -22 54 -28 0 -5 14 -19 30 -30 18 -12
30 -29 30 -42 0 -12 10 -31 22 -43 l22 -20 -27 0 c-15 0 -27 5 -27 10 0 6 -13
10 -30 10 -32 0 -37 -9 -18 -28 9 -9 -15 -12 -108 -12 -66 0 -124 -4 -130 -9
-20 -19 -80 -48 -91 -44 -18 6 -16 43 3 64 15 16 14 21 -17 59 -19 23 -35 36
-39 30 -4 -6 -14 -8 -23 -4 -13 4 -17 1 -17 -15 0 -12 -4 -21 -8 -21 -32 0
-37 -170 -7 -216 8 -12 16 -37 17 -54 1 -17 10 -39 20 -50 10 -11 18 -26 18
-35 0 -8 3 -15 8 -15 12 0 32 -53 32 -87 0 -23 5 -33 15 -33 8 0 15 -9 15 -20
0 -11 6 -20 13 -20 7 0 19 -15 27 -32 l14 -33 4 43 c2 24 -2 50 -8 57 -7 8
-13 36 -15 62 -2 26 -8 65 -13 86 -10 36 2 54 14 22 4 -8 15 -15 25 -15 10 0
19 -4 19 -10 0 -5 9 -10 20 -10 16 0 10 10 -30 50 -27 27 -50 56 -50 64 0 8
-7 16 -15 20 -8 3 -15 14 -15 25 0 23 46 42 76 31 24 -9 53 3 35 15 -7 4 -18
4 -26 1 -11 -4 -15 2 -15 24 0 26 4 30 29 30 31 0 43 -16 35 -47 -6 -20 29
-43 66 -43 24 0 37 -20 19 -30 -10 -7 -10 -11 0 -24 7 -8 10 -19 7 -25 -3 -5
-2 -20 3 -34 8 -19 15 -23 39 -19 22 3 33 -2 44 -17 8 -11 18 -18 21 -15 3 4
9 -5 13 -20 4 -17 13 -26 26 -26 18 0 20 -5 14 -31 -5 -25 -2 -32 14 -36 19
-5 25 -29 22 -83 0 -7 8 -21 18 -30 18 -16 18 -17 -1 -30 -23 -17 -26 -45 -4
-36 8 3 14 2 14 -2 -1 -4 -1 -9 1 -12 1 -3 4 -16 6 -30 2 -13 10 -28 17 -32 9
-6 9 -8 0 -8 -7 0 -13 -7 -13 -16 0 -12 3 -14 13 -6 9 8 12 -3 13 -49 1 -36
-2 -55 -7 -47 -11 16 -11 15 -15 -52 -1 -30 -3 -59 -3 -64 -1 -4 -8 -5 -17 -2
-9 3 -12 2 -9 -5 4 -5 2 -16 -5 -24 -8 -9 -8 -15 0 -20 8 -5 7 -11 -2 -22 -11
-14 -10 -15 9 -9 13 4 27 1 37 -9 19 -20 20 -26 4 -23 -19 4 -22 -44 -4 -54 9
-5 16 -14 16 -21 0 -7 -4 -6 -10 3 -9 13 -11 13 -20 0 -5 -8 -8 -20 -5 -27 2
-7 0 -15 -5 -18 -5 -3 -7 -13 -4 -23 5 -14 4 -14 -4 -3 -6 8 -8 20 -5 28 3 7
1 13 -5 13 -6 0 -13 -6 -15 -12 -4 -10 -6 -10 -6 -1 -1 7 10 24 24 38 14 14
22 25 16 25 -5 0 -17 -7 -26 -17 -14 -14 -18 -14 -26 -2 -8 12 -10 12 -18 0
-19 -30 -23 31 -5 88 5 19 4 22 -6 16 -10 -6 -12 -4 -7 8 4 11 2 14 -9 10 -7
-3 -14 0 -14 6 0 6 -7 11 -15 11 -8 0 -15 -6 -15 -14 0 -7 -10 -16 -22 -20
-18 -5 -29 1 -50 26 -16 18 -28 43 -28 55 0 13 -3 22 -7 21 -14 -4 -93 54 -93
69 0 7 -10 17 -22 22 -24 10 -58 45 -58 60 0 18 30 21 31 3 1 -9 5 3 10 28 8
49 11 155 2 130 -21 -66 -56 -104 -87 -96 -13 3 -31 -1 -42 -8 -15 -11 -22
-12 -33 -3 -12 9 -13 9 -7 0 4 -8 2 -13 -4 -13 -15 0 -30 -17 -52 -57 -26 -45
-23 -51 30 -74 85 -37 97 -44 100 -64 3 -25 -49 -55 -93 -54 -16 0 -46 0 -65
-1 -19 -1 -73 3 -119 9 -83 11 -84 10 -147 -20 -35 -16 -64 -34 -64 -40 0 -5
-16 -9 -36 -9 -21 0 -33 4 -29 10 3 6 2 10 -2 10 -5 0 -9 8 -10 19 -1 13 4 17
21 16 14 -2 32 7 48 24 29 32 37 51 29 72 -9 24 -51 6 -51 -21 0 -16 -6 -21
-22 -19 -32 3 -58 -10 -52 -26 6 -15 -15 -32 -25 -19 -3 5 -13 10 -22 10 -14
1 -17 -15 -22 -100 -6 -111 2 -141 36 -132 11 3 27 0 34 -6 12 -10 18 -1 14
24 -1 8 36 4 61 -6 9 -4 25 -3 35 2 10 5 36 13 58 18 54 11 57 11 85 14 40 4
-56 18 -127 19 -49 1 -63 4 -63 16 0 8 8 15 19 15 10 0 29 8 42 18 41 30 112
60 149 63 171 10 375 -38 368 -86 -2 -11 -13 -22 -27 -25 -31 -7 -40 -30 -12
-30 24 0 28 -18 6 -26 -11 -4 -15 -21 -15 -56 0 -41 3 -49 16 -44 8 3 12 2 9
-4 -3 -6 1 -10 10 -10 9 0 14 -4 11 -8 -2 -4 4 -8 14 -8 10 0 17 4 14 8 -2 4
5 6 16 5 11 -1 20 -7 20 -15 0 -7 5 -10 12 -6 6 4 8 3 4 -4 -3 -5 -3 -12 1
-15 5 -2 3 -2 -4 -1 -9 2 -12 -22 -12 -89 0 -122 -3 -140 -23 -155 -10 -7 -18
-21 -18 -31 0 -10 -9 -21 -20 -24 -15 -4 -20 -14 -20 -36 0 -17 -5 -31 -11
-31 -5 0 -8 4 -4 9 3 5 1 12 -5 16 -5 3 -10 2 -10 -3 0 -6 -7 -12 -14 -15 -10
-4 -13 -1 -9 9 4 10 -2 14 -21 14 -31 0 -76 -40 -76 -68 0 -31 -29 -36 -40 -7
-11 30 -33 32 -60 5 -24 -24 -62 -28 -54 -5 4 8 5 15 3 16 -2 0 -33 3 -69 6
-46 4 -69 11 -81 24 -10 12 -23 17 -33 13 -11 -4 -16 -1 -16 10 0 22 -23 20
-40 -4 -8 -11 -22 -20 -32 -20 -10 0 -18 -5 -18 -12 0 -6 -8 -1 -19 10 -10 12
-23 22 -29 22 -5 0 -12 10 -16 23 -9 34 -138 103 -171 91 -11 -5 -15 1 -15 22
0 21 -7 32 -25 41 -21 9 -25 9 -25 -4 0 -8 -5 -11 -10 -8 -6 4 -8 10 -5 15 3
4 2 16 -2 26 -5 15 -8 14 -16 -7 -5 -14 -11 -19 -14 -11 -3 6 -9 9 -15 6 -6
-4 -6 2 1 14 14 26 14 32 1 32 -5 0 -10 -7 -10 -15 0 -8 -4 -15 -9 -15 -13 0
-21 27 -15 45 7 18 -12 20 -19 3 -4 -10 -8 -9 -16 2 -10 13 -12 13 -22 0 -8
-12 -9 -10 -4 7 5 17 3 22 -8 17 -7 -2 -20 2 -27 11 -7 9 -8 15 -2 15 6 0 12
-5 14 -11 2 -6 4 9 6 34 1 35 -3 49 -23 67 -19 17 -23 30 -20 61 3 27 -1 41
-12 47 -11 7 -12 11 -4 16 6 4 11 2 11 -3 0 -6 5 -11 10 -11 6 0 9 18 7 45 -5
54 -17 72 -17 26 0 -19 -4 -30 -10 -26 -6 4 -10 12 -9 18 3 29 -2 48 -11 42
-7 -5 -8 -11 -1 -18 6 -8 5 -19 -5 -31 -15 -21 -17 -17 -14 26 2 34 -18 46
-29 16 l-10 -23 0 25 c-1 15 7 30 19 38 11 7 20 22 20 33 0 18 -3 19 -15 9 -8
-7 -12 -16 -9 -21 3 -5 1 -9 -4 -9 -6 0 -13 11 -16 25 -4 14 -12 24 -19 22 -6
-1 -12 7 -12 18 0 11 6 19 13 17 17 -3 15 8 -5 31 -15 18 -16 20 -2 15 14 -6
15 -2 3 30 -7 21 -13 49 -14 65 0 38 -15 34 -18 -5 -4 -45 -8 -45 -20 3 -10
38 -9 43 15 65 15 13 23 28 18 32 -4 4 -10 1 -12 -5 -3 -7 -9 -13 -14 -13 -6
0 -9 6 -8 13 3 25 -1 70 -6 65 -3 -3 -6 -22 -7 -42 -1 -20 -5 -36 -9 -36 -11
0 -18 35 -16 83 1 24 -5 42 -13 48 -13 8 -13 10 -1 18 10 7 11 15 3 37 -6 16
-11 23 -11 17 -2 -22 -21 -14 -21 8 0 11 -7 27 -15 36 -14 14 -14 16 0 27 9 6
17 27 17 46 2 61 -5 139 -12 135 -10 -6 -10 27 0 50 5 11 11 32 14 48 4 15 12
27 19 27 19 0 36 35 31 61 -5 23 -5 23 10 5 16 -20 16 -20 17 0 1 10 1 25 0
32 -1 6 3 12 9 12 5 0 10 -4 10 -10 0 -5 5 -10 10 -10 6 0 10 16 10 35 0 22 6
38 15 41 8 3 17 14 20 24 4 13 12 17 22 13 14 -6 14 -2 -3 23 -15 22 -19 42
-17 84 2 30 4 72 4 94 1 26 4 34 10 25 5 -8 6 -21 3 -31 -2 -9 -1 -19 4 -22 5
-3 8 -17 7 -31 -2 -14 1 -23 6 -19 5 3 6 10 3 16 -4 6 0 14 7 19 12 8 12 10 0
18 -9 6 -10 10 -2 16 9 5 9 10 1 20 -7 8 -9 24 -4 37 4 13 7 41 7 63 0 34 0
35 4 8 2 -18 9 -33 14 -33 6 0 7 -5 3 -12 -12 -19 -14 -58 -3 -58 5 0 9 14 9
30 0 30 14 41 23 18 2 -7 8 -9 13 -5 5 4 2 12 -6 17 -8 6 -10 10 -5 10 13 0
19 100 5 100 -5 0 -10 -22 -10 -50 0 -27 -4 -50 -10 -50 -5 0 -10 15 -10 34 0
26 -5 36 -20 41 -21 7 -24 18 -10 50 7 17 9 15 9 -12 1 -52 19 -38 20 15 1 26
2 55 2 65 0 9 5 17 10 17 5 0 9 -18 7 -40 -2 -46 5 -57 25 -39 12 11 12 16 1
24 -9 7 -11 23 -7 53 7 50 23 57 19 7 -2 -19 1 -32 6 -29 5 3 7 12 4 20 -3 7
-1 16 3 18 11 7 11 56 0 56 -5 0 -9 -4 -9 -10 0 -5 -4 -10 -10 -10 -16 0 -11
17 7 24 11 5 22 1 29 -9 10 -13 17 -14 33 -5 12 6 21 17 21 25 0 8 11 22 25
31 18 12 25 25 25 47 0 24 3 28 12 19 19 -19 42 -14 53 11 8 16 18 22 43 22
26 0 34 5 39 23 3 14 11 21 19 18 8 -3 14 1 14 9 0 8 8 15 18 15 9 0 29 7 44
14 17 9 30 11 34 5 3 -6 15 -4 30 6 14 9 28 13 33 11 5 -3 14 1 21 9 9 11 16
12 25 5 14 -12 45 -3 45 13 0 5 9 2 20 -8 26 -23 34 -14 32 34 -2 31 1 40 15
43 23 5 43 -1 43 -14z m-600 -2963 c0 -8 3 -15 8 -15 4 0 17 -3 30 -6 17 -5
22 -2 22 12 1 13 5 10 15 -11 7 -16 14 -23 14 -15 1 10 4 11 9 4 10 -16 48
-34 69 -34 11 0 28 -7 39 -16 16 -13 16 -15 2 -10 -13 4 -18 0 -18 -15 0 -19
1 -19 16 -5 22 23 54 21 54 -3 0 -11 9 -23 20 -26 11 -3 20 -14 20 -23 1 -14
4 -13 19 6 19 22 61 31 61 12 0 -5 6 -7 14 -4 28 11 56 -15 56 -51 0 -26 5
-35 22 -41 22 -7 53 20 42 37 -3 5 2 6 10 3 21 -8 21 15 1 30 -12 9 -6 11 29
12 35 1 43 -2 38 -14 -4 -11 -2 -13 9 -6 8 4 22 7 32 6 9 -2 17 2 17 8 0 13
147 8 229 -7 39 -7 44 -11 47 -37 3 -30 21 -49 37 -39 6 4 7 -15 3 -48 -4 -30
-7 -62 -7 -72 0 -10 -7 -21 -15 -24 -8 -3 -14 -10 -14 -15 0 -5 -10 -18 -22
-29 -20 -16 -21 -20 -8 -29 10 -6 11 -10 3 -10 -7 0 -13 -11 -13 -24 0 -19 7
-25 33 -30 30 -6 31 -8 12 -19 -11 -6 -58 -12 -105 -13 -78 -1 -426 32 -580
55 -109 16 -211 31 -290 41 -98 12 -140 25 -184 55 -20 14 -41 25 -47 25 -5 0
-9 8 -7 18 2 11 -3 16 -14 14 -31 -5 -19 18 12 25 17 3 33 9 36 14 7 12 -10
42 -22 37 -11 -4 -14 80 -3 107 7 17 8 16 8 -8 1 -34 21 -26 21 8 0 22 3 24
29 19 24 -5 31 -2 44 24 9 20 11 34 5 40 -6 6 -6 12 1 16 6 4 11 0 11 -8 0
-19 16 -21 24 -3 5 10 7 10 12 0 11 -23 24 -13 24 18 0 27 3 30 23 24 12 -4
17 -3 10 2 -8 6 -8 13 2 26 12 17 14 16 23 -10 l10 -28 1 33 c1 31 21 48 21
17z"/>
<path d="M3680 5974 c0 -8 -4 -14 -8 -14 -5 0 -15 -11 -22 -25 -7 -14 -19 -25
-27 -25 -8 0 -13 -12 -14 -32 0 -18 -2 -46 -4 -63 -2 -16 0 -37 5 -45 9 -13
13 -11 29 10 14 17 16 27 8 32 -6 4 -15 4 -19 2 -4 -3 -8 0 -8 6 0 7 9 14 20
17 11 3 20 10 20 15 0 6 6 6 14 -1 11 -10 16 -8 21 8 3 12 16 23 28 25 108 22
167 28 226 21 91 -10 112 -8 127 13 8 10 13 12 14 5 0 -8 13 -13 30 -13 39 0
41 31 3 58 -33 23 -153 30 -153 9 0 -8 -3 -8 -8 -2 -4 6 -63 11 -144 11 -110
1 -138 -1 -138 -12z"/>
<path d="M4015 5772 c-42 -5 -54 -20 -31 -38 18 -13 17 -14 -20 -14 -48 0
-176 -25 -226 -45 -36 -14 -38 -14 -38 5 0 27 -7 25 -37 -10 -13 -16 -31 -30
-38 -30 -7 0 -18 -13 -25 -30 -7 -16 -16 -30 -21 -30 -5 0 -9 -8 -9 -18 0 -10
-4 -22 -10 -28 -5 -5 -7 -19 -4 -31 5 -19 9 -21 26 -12 15 8 19 8 14 0 -5 -7
-1 -9 8 -5 9 3 16 10 16 15 0 5 14 9 30 9 17 0 30 4 30 9 0 12 33 21 100 28
32 3 59 12 66 21 7 10 19 13 35 9 37 -10 71 2 60 21 -5 9 -5 27 1 45 10 28 13
29 52 23 22 -4 47 -13 55 -21 13 -12 12 -15 -5 -21 -10 -4 -30 -14 -43 -23
l-23 -15 22 -8 c16 -6 31 -3 49 8 16 11 44 17 78 16 29 0 53 3 53 7 0 5 -15
21 -32 36 -21 17 -28 29 -20 32 6 3 12 16 12 31 0 14 -3 23 -6 19 -4 -3 -14 2
-23 12 -22 24 -60 37 -96 33z"/>
<path d="M4296 5005 c-8 -9 -28 -20 -44 -26 -36 -12 -68 -70 -53 -96 6 -10 11
-13 11 -8 0 12 18 16 95 18 30 1 55 5 55 9 0 4 14 6 30 6 41 -1 45 6 30 53 -9
27 -22 44 -38 50 -35 13 -69 11 -86 -6z"/>
</g>
</svg>
